<svg width="512" height="512" viewBox="0 0 512 512" fill="none" xmlns="http://www.w3.org/2000/svg">
<path fill-rule="evenodd" clip-rule="evenodd" d="M20 51V461H113.777L113.777 314.024H164.387L244.601 461H355.5L266.177 300.167C268.471 299.059 270.734 297.884 272.965 296.644C293.805 285.057 310.206 269.221 322.169 249.137C334.132 228.667 340.114 205.686 340.114 180.195C340.114 155.476 334.132 133.461 322.169 114.149C310.206 94.4511 293.612 79.0018 272.386 67.8011C251.547 56.6004 228.2 51 202.343 51H20ZM193.66 238.709H113.777V133.267H184.977C197.327 133.267 207.746 135.392 216.236 139.64C225.112 143.889 231.866 150.069 236.497 158.179C241.128 165.904 243.443 174.98 243.443 185.409C243.443 195.837 241.321 205.107 237.075 213.217C233.216 221.328 227.428 227.701 219.709 232.336C212.377 236.584 203.694 238.709 193.66 238.709Z" fill="white"/>
<path d="M202.115 51H113.777L113.777 133.267L184.649 133.267C196.998 133.267 207.418 135.392 215.908 139.64C224.784 143.889 231.537 150.068 236.168 158.179C240.799 165.904 243.115 174.98 243.115 185.409C243.115 195.837 240.992 205.107 236.747 213.217C232.888 221.328 227.099 227.701 219.381 232.336C212.049 236.584 203.366 238.709 193.332 238.709L113.777 238.709L113.777 313.946H201.758C222.21 313.946 241.752 310.048 259.683 302.954C261.79 302.12 263.876 301.242 265.938 300.321L265.849 300.167C268.142 299.059 270.405 297.884 272.637 296.643C293.476 285.057 309.877 269.221 321.841 249.137C333.804 228.667 339.786 205.686 339.786 180.195C339.786 155.476 333.804 133.461 321.841 114.149C309.877 94.4511 293.283 79.0018 272.058 67.8011C251.246 56.6147 227.931 51.0143 202.115 51Z" fill="#EF8254"/>
<path d="M492 407.522C492 437.057 468.077 461 438.566 461C409.055 461 385.132 437.057 385.132 407.522C385.132 377.987 409.055 354.043 438.566 354.043C468.077 354.043 492 377.987 492 407.522Z" fill="white"/>
</svg>
